# xmcd CD database file
#
# Track frame offsets:
#	225
#	10274
#	23404
#	35306
#	56481
#	67706
#	83159
#	103381
#	111924
#	120716
#	133234
#	145149
#	162809
#	171964
#	182781
#
# Disc length: 2585 seconds
#
# Revision: 0
# Processed by: cddbd v1.4PL0 Copyright (c) Steve Scherf et al.
# Submitted via: CDex 1.50Beta3
#
DISCID=c50a160f
DTITLE=Johnny Cash - American Outtakes
DYEAR=1995
DGENRE=Country
TTITLE0=What On Earth
TTITLE1=The Drifter
TTITLE2=I Witnessed A Crime
TTITLE3=Banks Of The Ohio
TTITLE4=The Next Itme I'm In Town
TTITLE5=Breaking Bread
TTITLE6=To Beat The Devil
TTITLE7=Friends In California
TTITLE8=The Caretaker
TTITLE9=The Wonder Of You
TTITLE10=East Virginia Blues
TTITLE11=Bury Me Not (take 2)
TTITLE12=Old Chunk Of Coal
TTITLE13=Go On Blues
TTITLE14=Flesh And Blood
EXTD=YEAR: 1995
EXTT0=
EXTT1=
EXTT2=
EXTT3=
EXTT4=
EXTT5=
EXTT6=
EXTT7=
EXTT8=
EXTT9=
EXTT10=
EXTT11=
EXTT12=
EXTT13=
EXTT14=
PLAYORDER=
